# Blender v2.68 (sub 0) OBJ File: ''
# www.blender.org
mtllib untitled.mtl
o Plane.001
v -0.500000 0.200000 0.866025
v -0.500000 -0.200000 0.866025
v -1.000000 -0.200000 -0.000000
v 0.500000 0.200000 0.866025
v 0.500000 -0.200000 0.866025
v 1.000000 0.200000 0.000000
v 1.000000 -0.200000 -0.000000
v -0.500000 0.200000 -0.866030
v -0.500000 -0.200000 -0.866030
v 0.500000 0.200000 -0.866025
v -1.000000 0.200000 0.000000
v 0.500000 -0.200000 -0.866025
v -0.471132 0.250000 0.816025
v 0.471132 0.250000 -0.816025
v -0.471132 0.250000 -0.816030
v 0.942265 0.250000 0.000000
v -0.942265 0.250000 0.000000
v 0.471132 -0.250000 0.816025
v 0.942265 -0.250000 -0.000000
v 0.471132 -0.250000 -0.816025
v -0.471132 -0.250000 -0.816030
v -0.471132 -0.250000 0.816025
v -0.942265 -0.250000 -0.000000
v 0.471132 0.250000 0.816025
vt 0.895514 0.129439
vt 0.999604 0.387367
vt 0.998812 0.129122
vt 0.895118 0.000317
vt 0.998415 0.000000
vt 0.000000 0.516808
vt 0.000792 0.775052
vt 0.103298 0.516491
vt 0.331326 0.516808
vt 0.332118 0.775052
vt 0.434624 0.516491
vt 0.896306 0.387683
vt 1.000000 0.516490
vt 0.435812 0.903858
vt 0.435416 0.774735
vt 0.447559 0.387139
vt 0.224029 0.501581
vt 0.224044 0.516491
vt 0.223531 0.014910
vt 0.223516 0.000000
vt 0.012920 0.136792
vt 0.434390 0.136362
vt 0.013169 0.380129
vt 0.000265 0.387597
vt 0.000000 0.129350
vt 0.447295 0.128894
vt 0.671074 0.516491
vt 0.460479 0.379698
vt 0.460728 0.136362
vt 0.447823 0.128894
vt 0.671587 0.014910
vt 0.671602 0.000000
vt 0.447559 0.523906
vt 0.895118 0.129350
vt 0.882198 0.136792
vt 0.894853 0.387597
vt 0.671089 0.501581
vt 0.881948 0.380129
vt 0.896702 0.516807
vt 0.332514 0.904175
vt 0.434639 0.379698
vt 0.318437 0.524302
vt 0.104090 0.774735
vn -0.866025 -0.000000 0.500000
vn 0.000000 -0.000000 1.000000
vn 0.866025 -0.000000 0.500000
vn 0.000005 0.000000 -1.000000
vn -0.866027 0.000000 -0.499998
vn 0.866025 0.000000 -0.500000
vn 0.000000 0.707106 0.707107
vn 0.000004 0.707108 -0.707106
vn 0.612370 0.707110 -0.353552
vn -0.612370 0.707110 0.353552
vn -0.612371 0.707109 -0.353551
vn 0.612372 0.707107 0.353554
vn -0.000000 1.000000 0.000000
vn 0.000000 -0.707107 0.707107
vn 0.612372 -0.707107 0.353553
vn 0.612370 -0.707110 -0.353552
vn 0.000004 -0.707105 -0.707108
vn -0.612371 -0.707109 -0.353551
vn -0.612370 -0.707110 0.353552
vn 0.000000 -1.000000 -0.000000
vn -0.612373 -0.707107 -0.353552
vn -0.866026 0.000000 -0.499998
vn 0.612370 0.707110 0.353552
vn 0.612372 0.707107 -0.353553
vn -0.612372 0.707107 0.353554
vn -0.612373 0.707107 -0.353552
vn 0.612370 -0.707110 0.353552
vn 0.612372 -0.707107 -0.353554
vn 0.000004 -0.707108 -0.707106
vn 0.000004 0.707106 -0.707108
vn -0.612372 -0.707107 0.353554
usemtl None
s off
f 1/1/1 3/2/1 2/3/1
f 4/4/2 2/3/2 5/5/2
f 6/6/3 4/7/3 7/8/3
f 8/9/4 10/10/4 9/11/4
f 11/12/5 9/13/5 3/2/5
f 10/10/6 7/14/6 12/15/6
f 4/16/7 13/17/7 1/18/7
f 14/19/8 10/20/8 15/21/8
f 16/22/9 10/20/9 14/19/9
f 13/17/10 17/23/10 1/18/10
f 11/24/11 15/21/11 8/25/11
f 6/26/12 16/22/12 4/16/12
f 14/19/13 15/21/13 17/23/13
f 2/27/14 18/28/14 5/16/14
f 5/16/15 19/29/15 7/30/15
f 7/30/16 20/31/16 12/32/16
f 12/15/17 21/33/17 9/11/17
f 9/34/18 21/35/18 3/36/18
f 3/36/19 22/37/19 2/27/19
f 23/38/20 21/35/20 20/31/20
f 11/12/1 3/2/1 1/1/1
f 1/1/2 2/3/2 4/4/2
f 9/11/4 10/10/4 12/15/4
f 3/36/21 21/35/21 23/38/21
f 8/39/22 9/13/22 11/12/22
f 6/40/6 7/14/6 10/10/6
f 24/41/7 13/17/7 4/16/7
f 4/16/23 16/22/23 24/41/23
f 6/26/24 10/20/24 16/22/24
f 17/23/25 11/24/25 1/18/25
f 17/23/26 15/21/26 11/24/26
f 24/41/13 17/23/13 13/17/13
f 16/22/13 14/19/13 24/41/13
f 24/41/13 14/19/13 17/23/13
f 22/37/14 18/28/14 2/27/14
f 18/28/27 19/29/27 5/16/27
f 19/29/28 20/31/28 7/30/28
f 20/31/29 21/35/29 12/32/29
f 15/42/30 10/10/30 8/9/30
f 23/38/31 22/37/31 3/36/31
f 23/38/20 20/31/20 22/37/20
f 18/28/20 20/31/20 19/29/20
f 7/8/3 4/7/3 5/43/3
f 22/37/20 20/31/20 18/28/20
